<svg width="100" height="28" viewBox="0 0 100 28" fill="none" xmlns="http://www.w3.org/2000/svg">
<path d="M22.9944 19.1337C22.9944 21.4775 21.0726 23.3773 18.6951 23.3773C17.8042 23.3795 16.9344 23.1065 16.2046 22.5955L16.1966 22.6034L13.5876 20.7861C13.5145 20.7292 13.4381 20.6768 13.3588 20.6291C12.9065 20.3484 12.3845 20.2004 11.8523 20.202C11.1895 20.2033 10.5476 20.4339 10.0354 20.8545L7.78116 22.4225L7.27913 22.7731C6.60776 23.1696 5.84212 23.3783 5.06241 23.3773C2.68632 23.3773 0.759284 21.4794 0.759284 19.1337C0.758206 18.515 0.894955 17.9038 1.1596 17.3445L1.3471 16.9902L4.39397 11.2513C4.99793 12.3642 5.84756 13.325 6.87835 14.0605L6.91491 14.0844C7.00069 14.1491 7.09069 14.2053 7.18022 14.2658C7.2271 14.2981 7.28241 14.3342 7.33538 14.3666C7.37241 14.3909 7.40897 14.4111 7.44975 14.435C7.50272 14.4673 7.55616 14.4955 7.60913 14.5287C7.6335 14.5447 7.6621 14.5569 7.68647 14.5728H7.68741C7.7446 14.6094 7.80178 14.6375 7.86319 14.6698C7.9246 14.7022 7.99772 14.7383 8.0671 14.7744C8.07132 14.7744 8.07507 14.7786 8.07928 14.7823C8.14866 14.8147 8.21991 14.847 8.29163 14.8794C8.3385 14.9033 8.3896 14.9234 8.43882 14.9478C8.48803 14.9722 8.53678 14.9881 8.58975 15.0083C8.7735 15.0847 8.96147 15.1531 9.15225 15.2178C9.19913 15.2338 9.24225 15.2459 9.28678 15.2581C9.28678 15.2592 9.28723 15.2603 9.28802 15.2611C9.28881 15.2619 9.28988 15.2623 9.291 15.2623C9.34397 15.2783 9.40116 15.2942 9.45413 15.3092C9.501 15.3209 9.53991 15.3331 9.58069 15.3453C9.62991 15.3575 9.67444 15.3697 9.72366 15.3814L9.82163 15.4058C9.89522 15.4217 9.9646 15.4381 10.0382 15.4527C10.0546 15.4569 10.0748 15.4606 10.0954 15.4648C10.1648 15.4808 10.236 15.493 10.3035 15.5052C10.4629 15.5333 10.6262 15.5575 10.7933 15.5778L10.904 15.59C10.9485 15.5938 10.9893 15.6017 11.0343 15.6017C11.0343 15.6059 11.0385 15.6059 11.0427 15.6059H11.0624C11.0873 15.6097 11.1158 15.6097 11.1402 15.6139C11.3648 15.6298 11.5893 15.6383 11.818 15.6383C13.5049 15.6409 15.1544 15.1407 16.5557 14.2016C17.7256 13.4154 18.6779 12.3464 19.3241 11.0938L22.4798 17.1064H22.476C22.8167 17.7278 22.995 18.4251 22.9944 19.1337Z" fill="#0016C2"/>
<path d="M19.2548 10.5383C19.2421 10.5548 19.2283 10.5705 19.2136 10.5852C19.0996 10.7099 18.9853 10.835 18.8667 10.9559C17.0115 12.8153 14.4963 13.8656 11.8698 13.8776C9.24321 13.8897 6.71848 12.8625 4.84637 11.0202C4.72777 10.9034 4.61199 10.7825 4.49902 10.6578L7.64715 4.71876L7.70434 4.61798L7.7409 4.63813C8.1484 3.9059 8.73959 3.29243 9.45625 2.85812C10.1729 2.42381 10.9903 2.18364 11.828 2.16127C12.6657 2.13889 13.4948 2.33508 14.2336 2.73051C14.9724 3.12594 15.5955 3.70698 16.0415 4.41641L16.3696 5.04501L16.3739 5.05298L19.2548 10.5383Z" fill="#0016C2"/>
<path d="M40.62 19.5L39.44 16.86H32.12L30.92 19.5H28.06L34.34 5.5H37.22L43.5 19.5H40.62ZM38.38 14.4L35.78 8.44L33.18 14.4H38.38ZM57.6264 19.32V19.5H54.6064L50.5464 14.82H47.8664V19.5H45.2264V5.48C47.4464 5.48 49.6664 5.5 51.8864 5.5C55.1864 5.52 56.9264 7.72 56.9264 10.14C56.9264 12.06 56.0464 14 53.3864 14.54L57.6264 19.32ZM51.8864 7.96H47.8664V12.44H51.8864C53.5664 12.44 54.2864 11.32 54.2864 10.2C54.2864 9.08 53.5464 7.96 51.8864 7.96ZM72.2266 5.5L66.4066 19.56H63.6666L57.8466 5.5H60.8066L65.0266 16.4L69.2666 5.5H72.2266ZM75.7155 5.5L79.2755 11.28L82.9955 5.5H86.1755V5.62L80.5955 13.72V19.5H77.9555V13.72L72.5755 5.62V5.5H75.7155ZM97.893 7.8L95.793 8.88C95.313 8.08 93.993 7.32 92.473 7.32C90.513 7.32 89.573 8.14 89.573 9.18C89.573 10.4 91.013 10.74 92.693 10.94C95.613 11.3 98.333 12.06 98.333 15.4C98.333 18.52 95.573 19.86 92.453 19.86C89.593 19.86 87.393 18.98 86.353 16.42L88.553 15.28C89.173 16.82 90.793 17.5 92.493 17.5C94.153 17.5 95.713 16.92 95.713 15.4C95.713 14.08 94.333 13.54 92.473 13.34C89.613 13 86.973 12.24 86.973 9.1C86.973 6.22 89.813 5.04 92.393 5.02C94.573 5.02 96.833 5.64 97.893 7.8Z" fill="#3A3A3A"/>
</svg>
