<svg width="80" height="80" viewBox="0 0 42 42" fill="none" xmlns="http://www.w3.org/2000/svg" class="loader-icon">
  <!-- Bottom curved shape -->
  <path class="logo-path" d="M40.4703 32.7954C40.4703 36.9204 37.0878 40.2641 32.9034 40.2641C31.3355 40.268 29.8046 39.7874 28.5202 38.888L28.5062 38.9021L23.9142 35.7035C23.7857 35.6035 23.6512 35.5112 23.5116 35.4272C22.7156 34.9332 21.7969 34.6728 20.8601 34.6756C19.6936 34.6779 18.5638 35.0836 17.6624 35.824L13.6949 38.5836L12.8114 39.2007C11.6298 39.8986 10.2822 40.2659 8.90994 40.2641C4.72801 40.2641 1.33644 36.9237 1.33644 32.7954C1.33454 31.7064 1.57522 30.6307 2.04099 29.6464L2.37099 29.0227L7.73349 18.9222C8.79646 20.8811 10.2918 22.5719 12.106 23.8664L12.1703 23.9085C12.3213 24.0224 12.4797 24.1214 12.6373 24.2278C12.7198 24.2847 12.8171 24.3482 12.9104 24.4052C12.9755 24.4481 13.0399 24.4835 13.1117 24.5256C13.2049 24.5825 13.2989 24.632 13.3922 24.6906C13.4351 24.7187 13.4854 24.7401 13.5283 24.7682H13.5299C13.6306 24.8325 13.7312 24.882 13.8393 24.9389C13.9474 24.9959 14.0761 25.0594 14.1982 25.1229C14.2056 25.1229 14.2122 25.1303 14.2196 25.1369C14.3417 25.1939 14.4671 25.2508 14.5934 25.3077C14.6759 25.3498 14.7658 25.3853 14.8524 25.4282C14.939 25.4711 15.0248 25.4991 15.1181 25.5346C15.4415 25.6691 15.7723 25.7895 16.1081 25.9034C16.1906 25.9314 16.2665 25.9529 16.3448 25.9743C16.3448 25.9763 16.3456 25.9782 16.347 25.9796C16.3484 25.981 16.3503 25.9817 16.3523 25.9817C16.4455 26.0098 16.5461 26.0378 16.6394 26.0642C16.7219 26.0849 16.7903 26.1063 16.8621 26.1278C16.9487 26.1492 17.0271 26.1707 17.1137 26.1913L17.2862 26.2342C17.4157 26.2622 17.5378 26.2911 17.6673 26.3167C17.6962 26.3241 17.7317 26.3307 17.768 26.3381C17.8901 26.3662 18.0155 26.3876 18.1343 26.4091C18.4148 26.4586 18.7021 26.5012 18.9964 26.537L19.1911 26.5584C19.2695 26.565 19.3412 26.579 19.4204 26.579C19.4204 26.5865 19.4279 26.5865 19.4353 26.5865H19.4699C19.5137 26.5931 19.564 26.5931 19.6069 26.6005C20.0021 26.6285 20.3972 26.6434 20.7998 26.6434C23.7688 26.648 26.6718 25.7676 29.1381 24.1148C31.1971 22.7311 32.8731 20.8496 34.0106 18.645L39.5645 29.2273H39.5579C40.1574 30.3209 40.4713 31.5482 40.4703 32.7954Z" stroke="white" stroke-width="0.8" fill="transparent"/>
  <!-- Top triangle shape -->
  <path class="logo-path" d="M33.8886 17.667C33.8663 17.6961 33.842 17.7236 33.816 17.7495C33.6156 17.9689 33.4143 18.1892 33.2055 18.4021C29.9404 21.6746 25.5137 23.5231 20.8909 23.5442C16.2682 23.5654 11.8247 21.7576 8.52978 18.5151C8.32106 18.3097 8.11728 18.0968 7.91846 17.8774L13.4592 7.42462L13.5598 7.24725L13.6242 7.28272C14.3414 5.99399 15.3818 4.91428 16.6432 4.14989C17.9045 3.38551 19.3431 2.96282 20.8175 2.92344C22.2918 2.88406 23.751 3.22935 25.0513 3.9253C26.3516 4.62126 27.4483 5.64389 28.2333 6.8925L28.8108 7.99882L28.8182 8.01285L33.8886 17.667Z" stroke="white" stroke-width="0.8" fill="transparent"/>
</svg>
